<svg width="1920" height="1080" viewBox="0 0 1920 1080" fill="none" xmlns="http://www.w3.org/2000/svg">
<path d="M1126.99 565.865C1116.23 532.007 1151.29 501.76 1183.17 517.394L1533.41 689.109C1566.76 705.461 1562.16 754.409 1526.35 764.259L1395.39 800.283C1383.17 803.643 1373.24 812.554 1368.58 824.342L1321.83 942.496C1307.88 977.775 1257.4 976.034 1245.9 939.877L1126.99 565.865Z" fill="#5665FC"/>
<path d="M1451.95 112C1506.52 112 1550.76 156.266 1550.76 210.87V634.6C1550.76 642.4 1544.44 648.724 1536.65 648.724C1528.85 648.724 1522.53 642.4 1522.53 634.6V210.87C1522.53 171.867 1490.93 140.249 1451.95 140.249H461.812C422.832 140.249 391.232 171.867 391.232 210.87V767.772C391.232 806.775 422.832 838.393 461.812 838.393H1163.58C1171.38 838.393 1177.7 844.717 1177.7 852.518C1177.7 859.619 1172.46 865.491 1165.64 866.488L1165.69 866.642H461.812C407.24 866.642 363 822.376 363 767.772V210.87C363 156.266 407.24 112 461.812 112H1451.95Z" fill="#5665FC"/>
</svg>
