<svg width="720" height="540" viewBox="0 0 720 540" fill="none" xmlns="http://www.w3.org/2000/svg">
<g clip-path="url(#clip0_23_111)">
<path d="M443.857 304.935C438.519 288.155 455.904 273.165 471.716 280.913L645.394 366.015C661.933 374.119 659.654 398.377 641.895 403.259L576.95 421.112C570.892 422.778 565.968 427.194 563.656 433.036L540.477 491.593C533.556 509.077 508.522 508.214 502.822 490.295L443.857 304.935Z" fill="#5665FC"/>
<path d="M605 80C632.062 80 654 101.938 654 129V338.031L653 337.547V339C653 342.866 649.866 346 646 346C642.134 346 639 342.866 639 339V287C639 285.681 639.365 284.447 640 283.394V129C640 109.67 624.33 94 605 94H114C94.67 94 79 109.67 79 129V405C79 424.33 94.67 440 114 440H462C465.866 440 469 443.134 469 447C469 450.519 466.403 453.43 463.021 453.924L463.045 454H114C86.938 454 65 432.062 65 405V129C65 101.938 86.938 80 114 80H605Z" fill="#5665FC"/>
</g>
<defs>
<clipPath id="clip0_23_111">
<rect width="720" height="540" fill="white"/>
</clipPath>
</defs>
</svg>
