<svg width="32" height="30" viewBox="0 0 32 30" fill="none" xmlns="http://www.w3.org/2000/svg">
<path d="M19.9311 16.6043C19.6785 15.8133 20.5013 15.1065 21.2497 15.4718L29.4698 19.4839C30.2525 19.8659 30.1447 21.0096 29.3042 21.2397L26.2304 22.0814C25.9436 22.1599 25.7106 22.3681 25.6011 22.6435L24.5041 25.4041C24.1765 26.2284 22.9917 26.1877 22.7219 25.3429L19.9311 16.6043Z" fill="#5665FC"/>
<path d="M27.5579 6C28.8388 6 29.8771 7.03425 29.8771 8.31005V18.2103C29.8771 18.3925 29.7287 18.5403 29.5458 18.5403C29.3628 18.5403 29.2145 18.3925 29.2145 18.2103V8.31005C29.2145 7.39876 28.4728 6.66001 27.5579 6.66001H4.31915C3.40427 6.66001 2.66261 7.39876 2.66261 8.31005V21.3218C2.66261 22.2331 3.40427 22.9718 4.31915 22.9718H20.7898C20.9728 22.9718 21.1211 23.1196 21.1211 23.3018C21.1211 23.4677 20.9982 23.6049 20.8381 23.6282L20.8393 23.6318H4.31915C3.03832 23.6318 2 22.5976 2 21.3218V8.31005C2 7.03425 3.03832 6 4.31915 6H27.5579Z" fill="#5665FC"/>
</svg>
